<?xml version="1.0" encoding="utf-8"?>
<!-- Generator: Adobe Illustrator 19.2.0, SVG Export Plug-In . SVG Version: 6.00 Build 0)  -->
<svg version="1.1" id="Layer_1" xmlns="http://www.w3.org/2000/svg" xmlns:xlink="http://www.w3.org/1999/xlink" x="0px" y="0px"
	 width="190px" height="190px" viewBox="0 0 190 190" style="enable-background:new 0 0 190 190;" xml:space="preserve">
<style type="text/css">
	.st0{fill:#F07F0A;}
	
		.st1{display:none;fill:none;stroke:#F69220;stroke-width:22.0742;stroke-linecap:round;stroke-miterlimit:10;stroke-dasharray:0,95.7456;}
	.st2{fill:none;stroke:#FFFFFF;stroke-width:2.5132;stroke-miterlimit:10;}
	.st3{fill:#FFFFFF;}
</style>
<path class="st0" d="M185,95.2c0,49.7-40.3,90-90,90s-90-40.3-90-90s40.3-90,90-90S185,45.5,185,95.2z"/>
<path class="st1" d="M474.7,95.2c0,209.7-170,379.6-379.6,379.6c-209.7,0-379.6-170-379.6-379.6s170-379.6,379.6-379.6
	C304.8-284.4,474.7-114.4,474.7,95.2z"/>
<g>
	<g>
		<polyline class="st2" points="70.3,43.7 70.3,37 120,37 120,43.7 		"/>
		<polyline class="st2" points="105.3,37.1 82.9,71.7 109.4,113.1 73.7,149.5 64.8,149.5 80.5,113.3 85.4,27.4 104.8,27.4 
			109.4,113.1 125.2,149.5 116.3,149.5 80.5,113.3 107.1,71.7 84.9,37.1 		"/>
	</g>
	<rect x="47.3" y="149.5" class="st2" width="95.3" height="7.6"/>
	<rect x="68.6" y="45.7" class="st3" width="3.2" height="3.2"/>
	<rect x="68.6" y="50.4" class="st3" width="3.2" height="3.3"/>
	<rect x="118.2" y="45.7" class="st3" width="3.2" height="3.2"/>
	<rect x="118.2" y="50.3" class="st3" width="3.2" height="3.3"/>
	<rect x="60.7" y="80.3" class="st3" width="3.2" height="3.2"/>
	<rect x="60.7" y="84.9" class="st3" width="3.2" height="3.2"/>
	<rect x="126.2" y="80.3" class="st3" width="3.2" height="3.2"/>
	<rect x="126.2" y="84.9" class="st3" width="3.2" height="3.2"/>
	<polyline class="st2" points="62.3,78.3 62.3,71.6 127.8,71.6 127.8,78.3 	"/>
	<line class="st2" x1="62.6" y1="72.1" x2="82" y2="84.6"/>
	<line class="st2" x1="108" y1="84.6" x2="127.3" y2="72.1"/>
	<line class="st2" x1="70.4" y1="37.2" x2="84" y2="48.8"/>
	<line class="st2" x1="119.9" y1="36.9" x2="106.2" y2="48.5"/>
</g>
</svg>
